<?xml version="1.0" encoding="utf-8"?>
<!-- Generator: Adobe Illustrator 23.0.0, SVG Export Plug-In . SVG Version: 6.00 Build 0)  -->
<svg version="1.1" id="Layer_1" xmlns="http://www.w3.org/2000/svg" xmlns:xlink="http://www.w3.org/1999/xlink" x="0px" y="0px"
	 viewBox="0 0 500 500" style="enable-background:new 0 0 500 500;" xml:space="preserve">
<style type="text/css">
	.st0{fill:#61BD66;}
</style>
<path class="st0" d="M270.04,490.2c-29.08-14.96-37.24-21.93-41.77-25.5c-31.07-24.45-58.4-51.98-75.55-88.38
	c-27-57.31-27.76-116.76-14.85-177.34c14.29-67.02,46.43-125.58,86.07-180.54c2.64-3.66,5.18-7.38,6.07-8.64
	c13.04,22.83,24.69,46.88,39.79,68.54c12.54,17.98,29.04,33.22,43.93,49.53c70.69,77.44,75.53,184.39,12,267.9
	c-9.14,12.02-18.64,23.77-29.58,35.11c2.21-53.72-0.26-106.62-9.04-159.04c-8.63-51.53-20.76-102.15-41.45-150.13
	c-1.7,0.41-3.4,0.82-5.1,1.23c0.67,4.28,0.87,8.69,2.07,12.82c25.85,88.98,31.28,180.21,28.21,272.05"/>
</svg>
